STARTFONT 2.1
FONT -DEC-Terminal-Bold-R-Normal--14-140-75-75-C-80-ISO8859-1
SIZE 14 75 75
FONTBOUNDINGBOX 8 14 0 -2
COMMENT $Xorg: termB14.bdf,v 1.3 2000/08/18 15:17:37 xorgcvs Exp $
COMMENT 
COMMENT +
COMMENT  Copyright (c) 1987, 1994 Digital Equipment Corporation
COMMENT 
COMMENT  The X Consortium, and any party obtaining a copy of these files from
COMMENT  the X Consortium, directly or indirectly, is granted, free of charge, a
COMMENT  full and unrestricted irrevocable, world-wide, paid up, royalty-free,
COMMENT  nonexclusive right and license to deal in this software and
COMMENT  documentation files (the "Software"), including without limitation the
COMMENT  rights to use, copy, modify, merge, publish, distribute, sublicense,
COMMENT  and/or sell copies of the Software, and to permit persons who receive
COMMENT  copies from any such party to do so.  This license includes without
COMMENT  limitation a license to do the foregoing actions under any patents of
COMMENT  the party supplying this software to the X Consortium.
COMMENT 
COMMENT  Digital Equipment Corporation make no representations about the
COMMENT  suitability of this software for any purpose.  It is provided "as
COMMENT  is" without express or implied warranty.
COMMENT -
STARTPROPERTIES 22
FOUNDRY "DEC"
FAMILY_NAME "Terminal"
WEIGHT_NAME "Bold"
SLANT "R"
SETWIDTH_NAME "Normal"
ADD_STYLE_NAME ""
PIXEL_SIZE 14
POINT_SIZE 140
RESOLUTION_X 75
RESOLUTION_Y 75
SPACING "C"
AVERAGE_WIDTH 80
CHARSET_REGISTRY "ISO8859"
CHARSET_ENCODING "1"
CAP_HEIGHT 8
X_HEIGHT 6
FONT_ASCENT 12
FONT_DESCENT 3
DEFAULT_CHAR 159
COPYRIGHT "Copyright (c) 1991 Digital Equipment Corporation. All Rights Reserved."
_DEC_PRODUCTINFO "DECterm Fonts V2.2, 11-Nov-1991"
FULL_NAME "Terminal Bold"
ENDPROPERTIES
CHARS 195
STARTCHAR space
ENCODING 32
SWIDTH 570 0
DWIDTH 8 0
BBX 1 1 0 0
BITMAP
00
ENDCHAR
STARTCHAR exclam
ENCODING 33
SWIDTH 570 0
DWIDTH 8 0
BBX 2 8 3 0
BITMAP
C0
C0
C0
C0
C0
00
C0
C0
ENDCHAR
STARTCHAR quotedbl
ENCODING 34
SWIDTH 570 0
DWIDTH 8 0
BBX 5 3 1 7
BITMAP
D8
D8
D8
ENDCHAR
STARTCHAR numbersign
ENCODING 35
SWIDTH 570 0
DWIDTH 8 0
BBX 6 9 1 0
BITMAP
48
48
FC
FC
48
FC
FC
48
48
ENDCHAR
STARTCHAR dollar
ENCODING 36
SWIDTH 570 0
DWIDTH 8 0
BBX 5 9 2 0
BITMAP
20
70
D8
C0
70
18
D8
70
20
ENDCHAR
STARTCHAR percent
ENCODING 37
SWIDTH 570 0
DWIDTH 8 0
BBX 7 8 1 0
BITMAP
6C
DC
78
18
30
3C
76
6C
ENDCHAR
STARTCHAR ampersand
ENCODING 38
SWIDTH 570 0
DWIDTH 8 0
BBX 7 8 1 0
BITMAP
30
58
58
32
7C
CC
CC
7A
ENDCHAR
STARTCHAR quoteright
ENCODING 39
SWIDTH 570 0
DWIDTH 8 0
BBX 3 3 2 7
BITMAP
60
60
C0
ENDCHAR
STARTCHAR parenleft
ENCODING 40
SWIDTH 570 0
DWIDTH 8 0
BBX 4 10 3 -1
BITMAP
30
60
60
C0
C0
C0
C0
60
60
30
ENDCHAR
STARTCHAR parenright
ENCODING 41
SWIDTH 570 0
DWIDTH 8 0
BBX 4 10 1 -1
BITMAP
C0
60
60
30
30
30
30
60
60
C0
ENDCHAR
STARTCHAR asterisk
ENCODING 42
SWIDTH 570 0
DWIDTH 8 0
BBX 7 7 1 1
BITMAP
10
54
38
FE
38
54
10
ENDCHAR
STARTCHAR plus
ENCODING 43
SWIDTH 570 0
DWIDTH 8 0
BBX 6 6 1 1
BITMAP
30
30
FC
FC
30
30
ENDCHAR
STARTCHAR comma
ENCODING 44
SWIDTH 570 0
DWIDTH 8 0
BBX 3 3 2 -1
BITMAP
60
60
C0
ENDCHAR
STARTCHAR minus
ENCODING 45
SWIDTH 570 0
DWIDTH 8 0
BBX 6 2 1 3
BITMAP
FC
FC
ENDCHAR
STARTCHAR period
ENCODING 46
SWIDTH 570 0
DWIDTH 8 0
BBX 2 2 2 0
BITMAP
C0
C0
ENDCHAR
STARTCHAR slash
ENCODING 47
SWIDTH 570 0
DWIDTH 8 0
BBX 5 10 2 -1
BITMAP
18
18
30
30
30
60
60
60
C0
C0
ENDCHAR
STARTCHAR zero
ENCODING 48
SWIDTH 570 0
DWIDTH 8 0
BBX 5 8 2 0
BITMAP
70
D8
D8
D8
D8
D8
D8
70
ENDCHAR
STARTCHAR one
ENCODING 49
SWIDTH 570 0
DWIDTH 8 0
BBX 4 8 2 0
BITMAP
60
60
E0
60
60
60
60
F0
ENDCHAR
STARTCHAR two
ENCODING 50
SWIDTH 570 0
DWIDTH 8 0
BBX 5 8 2 0
BITMAP
70
D8
18
30
60
40
F8
F8
ENDCHAR
STARTCHAR three
ENCODING 51
SWIDTH 570 0
DWIDTH 8 0
BBX 5 8 2 0
BITMAP
70
D8
18
30
18
18
D8
70
ENDCHAR
STARTCHAR four
ENCODING 52
SWIDTH 570 0
DWIDTH 8 0
BBX 6 8 1 0
BITMAP
18
38
38
58
D8
FC
18
18
ENDCHAR
STARTCHAR five
ENCODING 53
SWIDTH 570 0
DWIDTH 8 0
BBX 5 8 2 0
BITMAP
F8
C0
C0
F0
18
18
D8
70
ENDCHAR
STARTCHAR six
ENCODING 54
SWIDTH 570 0
DWIDTH 8 0
BBX 5 8 2 0
BITMAP
70
C0
C0
F0
D8
D8
D8
70
ENDCHAR
STARTCHAR seven
ENCODING 55
SWIDTH 570 0
DWIDTH 8 0
BBX 5 8 2 0
BITMAP
F8
18
18
30
30
60
60
60
ENDCHAR
STARTCHAR eight
ENCODING 56
SWIDTH 570 0
DWIDTH 8 0
BBX 5 8 2 0
BITMAP
70
D8
D8
70
D8
D8
D8
70
ENDCHAR
STARTCHAR nine
ENCODING 57
SWIDTH 570 0
DWIDTH 8 0
BBX 5 8 2 0
BITMAP
70
D8
D8
D8
78
18
D8
70
ENDCHAR
STARTCHAR colon
ENCODING 58
SWIDTH 570 0
DWIDTH 8 0
BBX 2 6 3 0
BITMAP
C0
C0
00
00
C0
C0
ENDCHAR
STARTCHAR semicolon
ENCODING 59
SWIDTH 570 0
DWIDTH 8 0
BBX 3 7 2 -1
BITMAP
60
60
00
00
60
60
C0
ENDCHAR
STARTCHAR less
ENCODING 60
SWIDTH 570 0
DWIDTH 8 0
BBX 5 8 2 0
BITMAP
18
30
60
C0
C0
60
30
18
ENDCHAR
STARTCHAR equal
ENCODING 61
SWIDTH 570 0
DWIDTH 8 0
BBX 6 5 1 2
BITMAP
FC
FC
00
FC
FC
ENDCHAR
STARTCHAR greater
ENCODING 62
SWIDTH 570 0
DWIDTH 8 0
BBX 5 8 1 0
BITMAP
C0
60
30
18
18
30
60
C0
ENDCHAR
STARTCHAR question
ENCODING 63
SWIDTH 570 0
DWIDTH 8 0
BBX 6 8 1 0
BITMAP
78
CC
CC
18
30
00
30
30
ENDCHAR
STARTCHAR at
ENCODING 64
SWIDTH 570 0
DWIDTH 8 0
BBX 7 8 1 0
BITMAP
7C
E2
CE
DA
DA
CE
E0
7C
ENDCHAR
STARTCHAR A
ENCODING 65
SWIDTH 570 0
DWIDTH 8 0
BBX 6 8 1 0
BITMAP
30
78
CC
CC
FC
CC
CC
CC
ENDCHAR
STARTCHAR B
ENCODING 66
SWIDTH 570 0
DWIDTH 8 0
BBX 6 8 1 0
BITMAP
F8
CC
CC
F8
CC
CC
CC
F8
ENDCHAR
STARTCHAR C
ENCODING 67
SWIDTH 570 0
DWIDTH 8 0
BBX 6 8 1 0
BITMAP
78
CC
C0
C0
C0
C0
CC
78
ENDCHAR
STARTCHAR D
ENCODING 68
SWIDTH 570 0
DWIDTH 8 0
BBX 6 8 1 0
BITMAP
F8
CC
CC
CC
CC
CC
CC
F8
ENDCHAR
STARTCHAR E
ENCODING 69
SWIDTH 570 0
DWIDTH 8 0
BBX 5 8 2 0
BITMAP
F8
C0
C0
F0
C0
C0
C0
F8
ENDCHAR
STARTCHAR F
ENCODING 70
SWIDTH 570 0
DWIDTH 8 0
BBX 5 8 2 0
BITMAP
F8
C0
C0
F0
C0
C0
C0
C0
ENDCHAR
STARTCHAR G
ENCODING 71
SWIDTH 570 0
DWIDTH 8 0
BBX 6 8 1 0
BITMAP
78
CC
C0
DC
CC
CC
CC
78
ENDCHAR
STARTCHAR H
ENCODING 72
SWIDTH 570 0
DWIDTH 8 0
BBX 6 8 1 0
BITMAP
CC
CC
CC
FC
CC
CC
CC
CC
ENDCHAR
STARTCHAR I
ENCODING 73
SWIDTH 570 0
DWIDTH 8 0
BBX 6 8 1 0
BITMAP
FC
30
30
30
30
30
30
FC
ENDCHAR
STARTCHAR J
ENCODING 74
SWIDTH 570 0
DWIDTH 8 0
BBX 5 8 1 0
BITMAP
78
18
18
18
18
18
D8
70
ENDCHAR
STARTCHAR K
ENCODING 75
SWIDTH 570 0
DWIDTH 8 0
BBX 7 8 1 0
BITMAP
C6
CC
D8
F0
F0
D8
CC
C6
ENDCHAR
STARTCHAR L
ENCODING 76
SWIDTH 570 0
DWIDTH 8 0
BBX 5 8 2 0
BITMAP
C0
C0
C0
C0
C0
C0
C0
F8
ENDCHAR
STARTCHAR M
ENCODING 77
SWIDTH 570 0
DWIDTH 8 0
BBX 7 8 1 0
BITMAP
C6
C6
EE
FE
D6
C6
C6
C6
ENDCHAR
STARTCHAR N
ENCODING 78
SWIDTH 570 0
DWIDTH 8 0
BBX 6 8 1 0
BITMAP
CC
CC
EC
EC
DC
DC
CC
CC
ENDCHAR
STARTCHAR O
ENCODING 79
SWIDTH 570 0
DWIDTH 8 0
BBX 6 8 1 0
BITMAP
78
CC
CC
CC
CC
CC
CC
78
ENDCHAR
STARTCHAR P
ENCODING 80
SWIDTH 570 0
DWIDTH 8 0
BBX 6 8 1 0
BITMAP
F8
CC
CC
CC
F8
C0
C0
C0
ENDCHAR
STARTCHAR Q
ENCODING 81
SWIDTH 570 0
DWIDTH 8 0
BBX 6 9 1 -1
BITMAP
78
CC
CC
CC
CC
CC
DC
78
0C
ENDCHAR
STARTCHAR R
ENCODING 82
SWIDTH 570 0
DWIDTH 8 0
BBX 7 8 1 0
BITMAP
F8
CC
CC
CC
F8
D8
CC
CE
ENDCHAR
STARTCHAR S
ENCODING 83
SWIDTH 570 0
DWIDTH 8 0
BBX 6 8 1 0
BITMAP
78
CC
C0
F8
7C
0C
CC
78
ENDCHAR
STARTCHAR T
ENCODING 84
SWIDTH 570 0
DWIDTH 8 0
BBX 6 8 1 0
BITMAP
FC
30
30
30
30
30
30
30
ENDCHAR
STARTCHAR U
ENCODING 85
SWIDTH 570 0
DWIDTH 8 0
BBX 6 8 1 0
BITMAP
CC
CC
CC
CC
CC
CC
CC
78
ENDCHAR
STARTCHAR V
ENCODING 86
SWIDTH 570 0
DWIDTH 8 0
BBX 6 8 1 0
BITMAP
CC
CC
CC
CC
CC
CC
78
30
ENDCHAR
STARTCHAR W
ENCODING 87
SWIDTH 570 0
DWIDTH 8 0
BBX 7 8 1 0
BITMAP
C6
C6
C6
D6
D6
D6
7C
28
ENDCHAR
STARTCHAR X
ENCODING 88
SWIDTH 570 0
DWIDTH 8 0
BBX 6 8 1 0
BITMAP
CC
CC
78
30
30
78
CC
CC
ENDCHAR
STARTCHAR Y
ENCODING 89
SWIDTH 570 0
DWIDTH 8 0
BBX 6 8 1 0
BITMAP
CC
CC
CC
78
30
30
30
30
ENDCHAR
STARTCHAR Z
ENCODING 90
SWIDTH 570 0
DWIDTH 8 0
BBX 6 8 1 0
BITMAP
FC
0C
1C
38
70
E0
C0
FC
ENDCHAR
STARTCHAR bracketleft
ENCODING 91
SWIDTH 570 0
DWIDTH 8 0
BBX 4 10 2 -1
BITMAP
F0
C0
C0
C0
C0
C0
C0
C0
C0
F0
ENDCHAR
STARTCHAR backslash
ENCODING 92
SWIDTH 570 0
DWIDTH 8 0
BBX 5 10 1 -1
BITMAP
C0
C0
60
60
60
30
30
30
18
18
ENDCHAR
STARTCHAR bracketright
ENCODING 93
SWIDTH 570 0
DWIDTH 8 0
BBX 4 10 2 -1
BITMAP
F0
30
30
30
30
30
30
30
30
F0
ENDCHAR
STARTCHAR asciicircum
ENCODING 94
SWIDTH 570 0
DWIDTH 8 0
BBX 6 3 1 3
BITMAP
30
78
CC
ENDCHAR
STARTCHAR underscore
ENCODING 95
SWIDTH 570 0
DWIDTH 8 0
BBX 6 2 1 0
BITMAP
FC
FC
ENDCHAR
STARTCHAR quoteleft
ENCODING 96
SWIDTH 570 0
DWIDTH 8 0
BBX 3 3 3 7
BITMAP
C0
C0
60
ENDCHAR
STARTCHAR a
ENCODING 97
SWIDTH 570 0
DWIDTH 8 0
BBX 7 6 1 0
BITMAP
78
0C
7C
CC
CC
76
ENDCHAR
STARTCHAR b
ENCODING 98
SWIDTH 570 0
DWIDTH 8 0
BBX 6 8 1 0
BITMAP
C0
C0
F8
CC
CC
CC
CC
F8
ENDCHAR
STARTCHAR c
ENCODING 99
SWIDTH 570 0
DWIDTH 8 0
BBX 6 6 1 0
BITMAP
78
CC
C0
C0
CC
78
ENDCHAR
STARTCHAR d
ENCODING 100
SWIDTH 570 0
DWIDTH 8 0
BBX 6 8 1 0
BITMAP
0C
0C
7C
CC
CC
CC
CC
7C
ENDCHAR
STARTCHAR e
ENCODING 101
SWIDTH 570 0
DWIDTH 8 0
BBX 6 6 1 0
BITMAP
78
CC
FC
C0
CC
78
ENDCHAR
STARTCHAR f
ENCODING 102
SWIDTH 570 0
DWIDTH 8 0
BBX 6 8 1 0
BITMAP
38
6C
60
F8
60
60
60
60
ENDCHAR
STARTCHAR g
ENCODING 103
SWIDTH 570 0
DWIDTH 8 0
BBX 6 8 1 -2
BITMAP
7C
CC
CC
CC
7C
0C
0C
78
ENDCHAR
STARTCHAR h
ENCODING 104
SWIDTH 570 0
DWIDTH 8 0
BBX 6 8 1 0
BITMAP
C0
C0
F8
CC
CC
CC
CC
CC
ENDCHAR
STARTCHAR i
ENCODING 105
SWIDTH 570 0
DWIDTH 8 0
BBX 6 9 1 0
BITMAP
30
30
00
70
30
30
30
30
FC
ENDCHAR
STARTCHAR j
ENCODING 106
SWIDTH 570 0
DWIDTH 8 0
BBX 5 11 1 -2
BITMAP
18
18
00
78
18
18
18
18
18
18
F0
ENDCHAR
STARTCHAR k
ENCODING 107
SWIDTH 570 0
DWIDTH 8 0
BBX 6 8 1 0
BITMAP
C0
C0
CC
D8
F0
F0
D8
CC
ENDCHAR
STARTCHAR l
ENCODING 108
SWIDTH 570 0
DWIDTH 8 0
BBX 6 8 1 0
BITMAP
70
30
30
30
30
30
30
FC
ENDCHAR
STARTCHAR m
ENCODING 109
SWIDTH 570 0
DWIDTH 8 0
BBX 7 6 1 0
BITMAP
EC
D6
D6
D6
D6
C6
ENDCHAR
STARTCHAR n
ENCODING 110
SWIDTH 570 0
DWIDTH 8 0
BBX 6 6 1 0
BITMAP
F8
CC
CC
CC
CC
CC
ENDCHAR
STARTCHAR o
ENCODING 111
SWIDTH 570 0
DWIDTH 8 0
BBX 6 6 1 0
BITMAP
78
CC
CC
CC
CC
78
ENDCHAR
STARTCHAR p
ENCODING 112
SWIDTH 570 0
DWIDTH 8 0
BBX 6 8 1 -2
BITMAP
F8
CC
CC
CC
CC
F8
C0
C0
ENDCHAR
STARTCHAR q
ENCODING 113
SWIDTH 570 0
DWIDTH 8 0
BBX 6 8 1 -2
BITMAP
7C
CC
CC
CC
CC
7C
0C
0C
ENDCHAR
STARTCHAR r
ENCODING 114
SWIDTH 570 0
DWIDTH 8 0
BBX 6 6 2 0
BITMAP
D8
EC
C0
C0
C0
C0
ENDCHAR
STARTCHAR s
ENCODING 115
SWIDTH 570 0
DWIDTH 8 0
BBX 6 6 1 0
BITMAP
7C
C0
F8
7C
0C
F8
ENDCHAR
STARTCHAR t
ENCODING 116
SWIDTH 570 0
DWIDTH 8 0
BBX 6 8 1 0
BITMAP
60
60
F8
60
60
60
6C
38
ENDCHAR
STARTCHAR u
ENCODING 117
SWIDTH 570 0
DWIDTH 8 0
BBX 6 6 1 0
BITMAP
CC
CC
CC
CC
CC
7C
ENDCHAR
STARTCHAR v
ENCODING 118
SWIDTH 570 0
DWIDTH 8 0
BBX 6 6 1 0
BITMAP
CC
CC
CC
68
30
30
ENDCHAR
STARTCHAR w
ENCODING 119
SWIDTH 570 0
DWIDTH 8 0
BBX 7 6 1 0
BITMAP
C6
D6
D6
D6
FE
6C
ENDCHAR
STARTCHAR x
ENCODING 120
SWIDTH 570 0
DWIDTH 8 0
BBX 7 6 1 0
BITMAP
C6
6C
38
38
6C
C6
ENDCHAR
STARTCHAR y
ENCODING 121
SWIDTH 570 0
DWIDTH 8 0
BBX 6 8 1 -2
BITMAP
CC
CC
CC
CC
7C
0C
0C
78
ENDCHAR
STARTCHAR z
ENCODING 122
SWIDTH 570 0
DWIDTH 8 0
BBX 6 6 1 0
BITMAP
FC
1C
38
70
E0
FC
ENDCHAR
STARTCHAR braceleft
ENCODING 123
SWIDTH 570 0
DWIDTH 8 0
BBX 5 10 2 -1
BITMAP
38
60
60
30
E0
30
60
60
60
38
ENDCHAR
STARTCHAR bar
ENCODING 124
SWIDTH 570 0
DWIDTH 8 0
BBX 2 10 3 -1
BITMAP
C0
C0
C0
C0
C0
C0
C0
C0
C0
C0
ENDCHAR
STARTCHAR braceright
ENCODING 125
SWIDTH 570 0
DWIDTH 8 0
BBX 5 10 1 -1
BITMAP
E0
30
30
60
38
60
30
30
30
E0
ENDCHAR
STARTCHAR asciitilde
ENCODING 126
SWIDTH 570 0
DWIDTH 8 0
BBX 6 3 1 3
BITMAP
64
FC
98
ENDCHAR
STARTCHAR OE
ENCODING 128
SWIDTH 570 0
DWIDTH 8 0
BBX 7 8 1 0
BITMAP
7E
D8
D8
DC
D8
D8
D8
7E
ENDCHAR
STARTCHAR oe
ENCODING 129
SWIDTH 570 0
DWIDTH 8 0
BBX 7 6 1 0
BITMAP
7C
D6
DE
D0
D6
7C
ENDCHAR
STARTCHAR Ydieresis
ENCODING 130
SWIDTH 570 0
DWIDTH 8 0
BBX 6 11 1 0
BITMAP
CC
CC
00
CC
CC
CC
78
30
30
30
30
ENDCHAR
STARTCHAR Error
ENCODING 159
SWIDTH 570 0
DWIDTH 8 0
BBX 8 14 0 -2
BITMAP
7E
FF
E7
E7
E0
F0
78
3C
1C
1C
00
1C
1C
1C
ENDCHAR
STARTCHAR space
ENCODING 160
SWIDTH 570 0
DWIDTH 8 0
BBX 1 1 0 0
BITMAP
00
ENDCHAR
STARTCHAR exclamdown
ENCODING 161
SWIDTH 570 0
DWIDTH 8 0
BBX 2 9 3 -1
BITMAP
C0
C0
00
C0
C0
C0
C0
C0
C0
ENDCHAR
STARTCHAR cent
ENCODING 162
SWIDTH 570 0
DWIDTH 8 0
BBX 6 9 1 -1
BITMAP
30
30
78
CC
C0
CC
78
30
30
ENDCHAR
STARTCHAR sterling
ENCODING 163
SWIDTH 570 0
DWIDTH 8 0
BBX 7 8 1 0
BITMAP
3C
64
60
F8
60
60
F6
BC
ENDCHAR
STARTCHAR currency
ENCODING 164
SWIDTH 570 0
DWIDTH 8 0
BBX 5 6 2 1
BITMAP
D8
70
D8
D8
70
D8
ENDCHAR
STARTCHAR yen
ENCODING 165
SWIDTH 570 0
DWIDTH 8 0
BBX 6 8 1 0
BITMAP
84
CC
78
30
FC
30
FC
30
ENDCHAR
STARTCHAR brokenbar
ENCODING 166
SWIDTH 570 0
DWIDTH 8 0
BBX 2 10 3 -1
BITMAP
C0
C0
C0
C0
00
00
C0
C0
C0
C0
ENDCHAR
STARTCHAR section
ENCODING 167
SWIDTH 570 0
DWIDTH 8 0
BBX 6 10 1 -1
BITMAP
78
CC
E0
78
CC
CC
78
1C
CC
78
ENDCHAR
STARTCHAR dieresis
ENCODING 168
SWIDTH 570 0
DWIDTH 8 0
BBX 6 2 1 8
BITMAP
CC
CC
ENDCHAR
STARTCHAR copyright
ENCODING 169
SWIDTH 570 0
DWIDTH 8 0
BBX 8 8 0 0
BITMAP
7E
C3
DB
D3
D3
DB
C3
7E
ENDCHAR
STARTCHAR ordfeminine
ENCODING 170
SWIDTH 570 0
DWIDTH 8 0
BBX 5 7 1 3
BITMAP
70
18
78
D8
78
00
F8
ENDCHAR
STARTCHAR guillemotleft
ENCODING 171
SWIDTH 570 0
DWIDTH 8 0
BBX 7 5 1 1
BITMAP
36
6C
D8
6C
36
ENDCHAR
STARTCHAR logicalnot
ENCODING 172
SWIDTH 570 0
DWIDTH 8 0
BBX 6 3 1 2
BITMAP
FC
FC
0C
ENDCHAR
STARTCHAR hyphen
ENCODING 173
SWIDTH 570 0
DWIDTH 8 0
BBX 4 2 2 3
BITMAP
F0
F0
ENDCHAR
STARTCHAR registered
ENCODING 174
SWIDTH 570 0
DWIDTH 8 0
BBX 8 10 0 -1
BITMAP
3C
7E
81
B9
B5
B9
B5
81
7E
3C
ENDCHAR
STARTCHAR macron
ENCODING 175
SWIDTH 570 0
DWIDTH 8 0
BBX 6 2 1 8
BITMAP
FC
FC
ENDCHAR
STARTCHAR degree
ENCODING 176
SWIDTH 570 0
DWIDTH 8 0
BBX 5 3 1 6
BITMAP
70
D8
70
ENDCHAR
STARTCHAR plusminus
ENCODING 177
SWIDTH 570 0
DWIDTH 8 0
BBX 6 8 1 1
BITMAP
30
30
FC
30
30
00
FC
FC
ENDCHAR
STARTCHAR twosuperior
ENCODING 178
SWIDTH 570 0
DWIDTH 8 0
BBX 5 6 1 4
BITMAP
70
98
18
70
C0
F8
ENDCHAR
STARTCHAR threesuperior
ENCODING 179
SWIDTH 570 0
DWIDTH 8 0
BBX 5 6 1 4
BITMAP
70
98
30
18
98
70
ENDCHAR
STARTCHAR acute
ENCODING 180
SWIDTH 570 0
DWIDTH 8 0
BBX 4 3 2 7
BITMAP
30
60
C0
ENDCHAR
STARTCHAR mu
ENCODING 181
SWIDTH 570 0
DWIDTH 8 0
BBX 7 7 1 -1
BITMAP
CC
CC
CC
CC
CC
FE
C0
ENDCHAR
STARTCHAR paragraph
ENCODING 182
SWIDTH 570 0
DWIDTH 8 0
BBX 7 10 1 -1
BITMAP
7E
F4
F4
F4
F4
74
34
34
34
34
ENDCHAR
STARTCHAR periodcentered
ENCODING 183
SWIDTH 570 0
DWIDTH 8 0
BBX 2 2 3 3
BITMAP
C0
C0
ENDCHAR
STARTCHAR cedilla
ENCODING 184
SWIDTH 570 0
DWIDTH 8 0
BBX 3 4 2 -2
BITMAP
60
60
60
C0
ENDCHAR
STARTCHAR onesuperior
ENCODING 185
SWIDTH 570 0
DWIDTH 8 0
BBX 4 6 2 4
BITMAP
60
E0
60
60
60
F0
ENDCHAR
STARTCHAR ordmasculine
ENCODING 186
SWIDTH 570 0
DWIDTH 8 0
BBX 5 7 1 3
BITMAP
70
D8
D8
D8
70
00
F8
ENDCHAR
STARTCHAR guillemotright
ENCODING 187
SWIDTH 570 0
DWIDTH 8 0
BBX 7 5 0 1
BITMAP
D8
6C
36
6C
D8
ENDCHAR
STARTCHAR onequarter
ENCODING 188
SWIDTH 570 0
DWIDTH 8 0
BBX 8 12 0 -1
BITMAP
30
70
31
32
7C
08
16
2E
56
BF
06
06
ENDCHAR
STARTCHAR onehalf
ENCODING 189
SWIDTH 570 0
DWIDTH 8 0
BBX 8 12 0 -1
BITMAP
30
70
31
32
7C
08
16
2B
43
86
0C
0F
ENDCHAR
STARTCHAR threequarters
ENCODING 190
SWIDTH 570 0
DWIDTH 8 0
BBX 8 12 0 -1
BITMAP
30
78
19
32
1C
78
36
2E
56
BF
06
06
ENDCHAR
STARTCHAR questiondown
ENCODING 191
SWIDTH 570 0
DWIDTH 8 0
BBX 6 9 1 -1
BITMAP
30
30
00
30
30
60
C4
CC
78
ENDCHAR
STARTCHAR Agrave
ENCODING 192
SWIDTH 570 0
DWIDTH 8 0
BBX 6 11 1 0
BITMAP
60
30
00
30
78
CC
CC
FC
CC
CC
CC
ENDCHAR
STARTCHAR Aacute
ENCODING 193
SWIDTH 570 0
DWIDTH 8 0
BBX 6 11 1 0
BITMAP
18
30
00
30
78
CC
CC
FC
CC
CC
CC
ENDCHAR
STARTCHAR Acircumflex
ENCODING 194
SWIDTH 570 0
DWIDTH 8 0
BBX 6 11 1 0
BITMAP
30
68
00
30
78
CC
CC
FC
CC
CC
CC
ENDCHAR
STARTCHAR Atilde
ENCODING 195
SWIDTH 570 0
DWIDTH 8 0
BBX 6 11 1 0
BITMAP
74
B8
00
30
78
CC
CC
FC
CC
CC
CC
ENDCHAR
STARTCHAR Adieresis
ENCODING 196
SWIDTH 570 0
DWIDTH 8 0
BBX 6 11 1 0
BITMAP
CC
CC
00
30
78
CC
CC
FC
CC
CC
CC
ENDCHAR
STARTCHAR Aring
ENCODING 197
SWIDTH 570 0
DWIDTH 8 0
BBX 6 12 1 0
BITMAP
30
68
68
30
30
78
CC
CC
FC
CC
CC
CC
ENDCHAR
STARTCHAR AE
ENCODING 198
SWIDTH 570 0
DWIDTH 8 0
BBX 7 8 1 0
BITMAP
7E
D8
D8
DC
F8
D8
D8
DE
ENDCHAR
STARTCHAR Ccedilla
ENCODING 199
SWIDTH 570 0
DWIDTH 8 0
BBX 6 10 1 -2
BITMAP
78
CC
C0
C0
C0
C0
CC
78
10
30
ENDCHAR
STARTCHAR Egrave
ENCODING 200
SWIDTH 570 0
DWIDTH 8 0
BBX 5 11 2 0
BITMAP
60
30
00
F8
C0
C0
F0
C0
C0
C0
F8
ENDCHAR
STARTCHAR Eacute
ENCODING 201
SWIDTH 570 0
DWIDTH 8 0
BBX 5 11 2 0
BITMAP
18
30
00
F8
C0
C0
F0
C0
C0
C0
F8
ENDCHAR
STARTCHAR Ecircumflex
ENCODING 202
SWIDTH 570 0
DWIDTH 8 0
BBX 5 11 2 0
BITMAP
60
D0
00
F8
C0
C0
F0
C0
C0
C0
F8
ENDCHAR
STARTCHAR Edieresis
ENCODING 203
SWIDTH 570 0
DWIDTH 8 0
BBX 5 11 2 0
BITMAP
D8
D8
00
F8
C0
C0
F0
C0
C0
C0
F8
ENDCHAR
STARTCHAR Igrave
ENCODING 204
SWIDTH 570 0
DWIDTH 8 0
BBX 6 11 1 0
BITMAP
60
30
00
FC
30
30
30
30
30
30
FC
ENDCHAR
STARTCHAR Iacute
ENCODING 205
SWIDTH 570 0
DWIDTH 8 0
BBX 6 11 1 0
BITMAP
18
30
00
FC
30
30
30
30
30
30
FC
ENDCHAR
STARTCHAR Icircumflex
ENCODING 206
SWIDTH 570 0
DWIDTH 8 0
BBX 6 11 1 0
BITMAP
30
68
00
FC
30
30
30
30
30
30
FC
ENDCHAR
STARTCHAR Idieresis
ENCODING 207
SWIDTH 570 0
DWIDTH 8 0
BBX 6 11 1 0
BITMAP
CC
CC
00
FC
30
30
30
30
30
30
FC
ENDCHAR
STARTCHAR Eth
ENCODING 208
SWIDTH 570 0
DWIDTH 8 0
BBX 7 8 0 0
BITMAP
7C
66
66
F6
66
66
66
7C
ENDCHAR
STARTCHAR Ntilde
ENCODING 209
SWIDTH 570 0
DWIDTH 8 0
BBX 6 11 1 0
BITMAP
74
B8
00
CC
CC
EC
EC
DC
DC
CC
CC
ENDCHAR
STARTCHAR Ograve
ENCODING 210
SWIDTH 570 0
DWIDTH 8 0
BBX 6 11 1 0
BITMAP
60
30
00
78
CC
CC
CC
CC
CC
CC
78
ENDCHAR
STARTCHAR Oacute
ENCODING 211
SWIDTH 570 0
DWIDTH 8 0
BBX 6 11 1 0
BITMAP
18
30
00
78
CC
CC
CC
CC
CC
CC
78
ENDCHAR
STARTCHAR Ocircumflex
ENCODING 212
SWIDTH 570 0
DWIDTH 8 0
BBX 6 11 1 0
BITMAP
30
68
00
78
CC
CC
CC
CC
CC
CC
78
ENDCHAR
STARTCHAR Otilde
ENCODING 213
SWIDTH 570 0
DWIDTH 8 0
BBX 6 11 1 0
BITMAP
74
B8
00
78
CC
CC
CC
CC
CC
CC
78
ENDCHAR
STARTCHAR Odieresis
ENCODING 214
SWIDTH 570 0
DWIDTH 8 0
BBX 6 11 1 0
BITMAP
CC
CC
00
78
CC
CC
CC
CC
CC
CC
78
ENDCHAR
STARTCHAR multiply
ENCODING 215
SWIDTH 570 0
DWIDTH 8 0
BBX 6 5 1 2
BITMAP
CC
78
30
78
CC
ENDCHAR
STARTCHAR Oslash
ENCODING 216
SWIDTH 570 0
DWIDTH 8 0
BBX 7 10 1 -1
BITMAP
02
3C
6C
6C
7C
7C
6C
6C
78
80
ENDCHAR
STARTCHAR Ugrave
ENCODING 217
SWIDTH 570 0
DWIDTH 8 0
BBX 6 11 1 0
BITMAP
60
30
00
CC
CC
CC
CC
CC
CC
CC
78
ENDCHAR
STARTCHAR Uacute
ENCODING 218
SWIDTH 570 0
DWIDTH 8 0
BBX 6 11 1 0
BITMAP
18
30
00
CC
CC
CC
CC
CC
CC
CC
78
ENDCHAR
STARTCHAR Ucircumflex
ENCODING 219
SWIDTH 570 0
DWIDTH 8 0
BBX 6 11 1 0
BITMAP
30
78
00
CC
CC
CC
CC
CC
CC
CC
78
ENDCHAR
STARTCHAR Udieresis
ENCODING 220
SWIDTH 570 0
DWIDTH 8 0
BBX 6 11 1 0
BITMAP
CC
CC
00
CC
CC
CC
CC
CC
CC
CC
78
ENDCHAR
STARTCHAR Yacute
ENCODING 221
SWIDTH 570 0
DWIDTH 8 0
BBX 6 11 1 0
BITMAP
18
30
00
CC
CC
CC
78
30
30
30
30
ENDCHAR
STARTCHAR Thorn
ENCODING 222
SWIDTH 570 0
DWIDTH 8 0
BBX 6 8 1 0
BITMAP
F0
60
78
6C
6C
78
60
F0
ENDCHAR
STARTCHAR germandbls
ENCODING 223
SWIDTH 570 0
DWIDTH 8 0
BBX 6 8 1 0
BITMAP
78
CC
CC
D8
CC
CC
CC
D8
ENDCHAR
STARTCHAR agrave
ENCODING 224
SWIDTH 570 0
DWIDTH 8 0
BBX 7 9 1 0
BITMAP
30
18
00
78
0C
7C
CC
CC
76
ENDCHAR
STARTCHAR aacute
ENCODING 225
SWIDTH 570 0
DWIDTH 8 0
BBX 7 9 1 0
BITMAP
18
30
00
78
0C
7C
CC
CC
76
ENDCHAR
STARTCHAR acircumflex
ENCODING 226
SWIDTH 570 0
DWIDTH 8 0
BBX 7 9 1 0
BITMAP
30
68
00
78
0C
7C
CC
CC
76
ENDCHAR
STARTCHAR atilde
ENCODING 227
SWIDTH 570 0
DWIDTH 8 0
BBX 7 9 1 0
BITMAP
34
58
00
78
0C
7C
CC
CC
76
ENDCHAR
STARTCHAR adieresis
ENCODING 228
SWIDTH 570 0
DWIDTH 8 0
BBX 7 9 1 0
BITMAP
6C
6C
00
78
0C
7C
CC
CC
76
ENDCHAR
STARTCHAR aring
ENCODING 229
SWIDTH 570 0
DWIDTH 8 0
BBX 7 10 1 0
BITMAP
78
EC
78
00
78
0C
7C
CC
CC
76
ENDCHAR
STARTCHAR ae
ENCODING 230
SWIDTH 570 0
DWIDTH 8 0
BBX 7 6 1 0
BITMAP
7C
9A
7E
D8
DA
6C
ENDCHAR
STARTCHAR ccedilla
ENCODING 231
SWIDTH 570 0
DWIDTH 8 0
BBX 6 8 1 -2
BITMAP
78
CC
C0
C0
CC
78
10
30
ENDCHAR
STARTCHAR egrave
ENCODING 232
SWIDTH 570 0
DWIDTH 8 0
BBX 6 9 1 0
BITMAP
60
30
00
78
CC
FC
C0
CC
78
ENDCHAR
STARTCHAR eacute
ENCODING 233
SWIDTH 570 0
DWIDTH 8 0
BBX 6 9 1 0
BITMAP
18
30
00
78
CC
FC
C0
CC
78
ENDCHAR
STARTCHAR ecircumflex
ENCODING 234
SWIDTH 570 0
DWIDTH 8 0
BBX 6 9 1 0
BITMAP
30
68
00
78
CC
FC
C0
CC
78
ENDCHAR
STARTCHAR edieresis
ENCODING 235
SWIDTH 570 0
DWIDTH 8 0
BBX 6 9 1 0
BITMAP
CC
CC
00
78
CC
FC
C0
CC
78
ENDCHAR
STARTCHAR igrave
ENCODING 236
SWIDTH 570 0
DWIDTH 8 0
BBX 6 9 1 0
BITMAP
60
30
00
70
30
30
30
30
FC
ENDCHAR
STARTCHAR iacute
ENCODING 237
SWIDTH 570 0
DWIDTH 8 0
BBX 6 9 1 0
BITMAP
18
30
00
70
30
30
30
30
FC
ENDCHAR
STARTCHAR icircumflex
ENCODING 238
SWIDTH 570 0
DWIDTH 8 0
BBX 6 9 1 0
BITMAP
30
68
00
70
30
30
30
30
FC
ENDCHAR
STARTCHAR idieresis
ENCODING 239
SWIDTH 570 0
DWIDTH 8 0
BBX 6 9 1 0
BITMAP
D8
D8
00
70
30
30
30
30
FC
ENDCHAR
STARTCHAR eth
ENCODING 240
SWIDTH 570 0
DWIDTH 8 0
BBX 6 8 1 0
BITMAP
48
30
70
18
7C
CC
CC
78
ENDCHAR
STARTCHAR ntilde
ENCODING 241
SWIDTH 570 0
DWIDTH 8 0
BBX 6 9 1 0
BITMAP
74
B8
00
F8
CC
CC
CC
CC
CC
ENDCHAR
STARTCHAR ograve
ENCODING 242
SWIDTH 570 0
DWIDTH 8 0
BBX 6 9 1 0
BITMAP
60
30
00
78
CC
CC
CC
CC
78
ENDCHAR
STARTCHAR oacute
ENCODING 243
SWIDTH 570 0
DWIDTH 8 0
BBX 6 9 1 0
BITMAP
18
30
00
78
CC
CC
CC
CC
78
ENDCHAR
STARTCHAR ocircumflex
ENCODING 244
SWIDTH 570 0
DWIDTH 8 0
BBX 6 9 1 0
BITMAP
30
68
00
78
CC
CC
CC
CC
78
ENDCHAR
STARTCHAR otilde
ENCODING 245
SWIDTH 570 0
DWIDTH 8 0
BBX 6 9 1 0
BITMAP
74
B8
00
78
CC
CC
CC
CC
78
ENDCHAR
STARTCHAR odieresis
ENCODING 246
SWIDTH 570 0
DWIDTH 8 0
BBX 6 9 1 0
BITMAP
CC
CC
00
78
CC
CC
CC
CC
78
ENDCHAR
STARTCHAR divide
ENCODING 247
SWIDTH 570 0
DWIDTH 8 0
BBX 6 8 1 0
BITMAP
30
30
00
FC
FC
00
30
30
ENDCHAR
STARTCHAR oslash
ENCODING 248
SWIDTH 570 0
DWIDTH 8 0
BBX 7 6 1 0
BITMAP
3A
6C
7C
7C
6C
B8
ENDCHAR
STARTCHAR ugrave
ENCODING 249
SWIDTH 570 0
DWIDTH 8 0
BBX 6 9 1 0
BITMAP
60
30
00
CC
CC
CC
CC
CC
7C
ENDCHAR
STARTCHAR uacute
ENCODING 250
SWIDTH 570 0
DWIDTH 8 0
BBX 6 9 1 0
BITMAP
18
30
00
CC
CC
CC
CC
CC
7C
ENDCHAR
STARTCHAR ucircumflex
ENCODING 251
SWIDTH 570 0
DWIDTH 8 0
BBX 6 9 1 0
BITMAP
30
68
00
CC
CC
CC
CC
CC
7C
ENDCHAR
STARTCHAR udieresis
ENCODING 252
SWIDTH 570 0
DWIDTH 8 0
BBX 6 9 1 0
BITMAP
CC
CC
00
CC
CC
CC
CC
CC
7C
ENDCHAR
STARTCHAR yacute
ENCODING 253
SWIDTH 570 0
DWIDTH 8 0
BBX 6 11 1 -2
BITMAP
18
30
00
CC
CC
CC
CC
7C
0C
CC
78
ENDCHAR
STARTCHAR thorn
ENCODING 254
SWIDTH 570 0
DWIDTH 8 0
BBX 6 10 1 -2
BITMAP
C0
C0
F8
CC
CC
CC
CC
F8
C0
C0
ENDCHAR
STARTCHAR ydieresis
ENCODING 255
SWIDTH 570 0
DWIDTH 8 0
BBX 6 11 1 -2
BITMAP
CC
CC
00
CC
CC
CC
CC
7C
0C
CC
78
ENDCHAR
ENDFONT
